<svg width="72" height="72" viewBox="0 0 72 72" fill="none" xmlns="http://www.w3.org/2000/svg">
<g clip-path="url(#clip0_34717_2781)">
<path d="M60.4905 12.984C55.8572 10.8576 50.9681 9.33997 45.945 8.46892C45.8995 8.46126 45.8528 8.46788 45.8112 8.48787C45.7696 8.50786 45.7353 8.54025 45.7128 8.58057C45.0831 9.69705 44.3864 11.1574 43.8997 12.3007C38.4852 11.479 32.9778 11.479 27.5634 12.3007C27.0204 11.0271 26.4061 9.78508 25.7234 8.58057C25.7005 8.54069 25.6661 8.50868 25.6246 8.48875C25.5832 8.46882 25.5366 8.46191 25.4912 8.46892C20.467 9.33531 15.5769 10.8537 10.9457 12.984C10.9061 12.9991 10.8729 13.0275 10.8519 13.0643C1.58964 26.9042 -0.951461 40.4046 0.294528 53.7354C0.298994 53.7979 0.339187 53.8604 0.388312 53.9006C5.7819 57.8959 11.8147 60.9463 18.2296 62.9218C18.2749 62.936 18.3236 62.9355 18.3686 62.9203C18.4135 62.905 18.4525 62.8758 18.4797 62.8369C19.8552 60.9612 21.0789 58.9828 22.1328 56.9017C22.1548 56.8588 22.1623 56.81 22.1543 56.7625C22.1462 56.7151 22.123 56.6715 22.0882 56.6382C22.0651 56.6164 22.0377 56.5997 22.0078 56.5891C20.0837 55.8496 18.2202 54.9612 16.4343 53.9319C16.3844 53.9036 16.3473 53.8572 16.3307 53.8024C16.3141 53.7475 16.3192 53.6883 16.345 53.6371C16.3602 53.6039 16.3832 53.5748 16.412 53.5523C16.7871 53.2709 17.1623 52.9762 17.5195 52.6814C17.5511 52.656 17.589 52.6397 17.6291 52.6342C17.6692 52.6287 17.7101 52.6342 17.7473 52.6502C29.4435 57.9914 42.1044 57.9914 53.6577 52.6502C53.6963 52.6335 53.7387 52.6275 53.7803 52.633C53.822 52.6386 53.8614 52.6553 53.8944 52.6814C54.2516 52.9762 54.6268 53.2709 55.0019 53.5523C55.0323 53.5745 55.0567 53.6039 55.073 53.6379C55.0892 53.6718 55.0968 53.7093 55.095 53.7469C55.0933 53.7845 55.0822 53.8211 55.0628 53.8534C55.0435 53.8856 55.0164 53.9126 54.9841 53.9319C53.2022 54.9706 51.3364 55.858 49.4061 56.5846C49.3753 56.5958 49.3474 56.6136 49.3242 56.6367C49.3011 56.6599 49.2833 56.6878 49.2722 56.7186C49.2618 56.7484 49.2577 56.7801 49.26 56.8115C49.2623 56.843 49.271 56.8737 49.2855 56.9017C50.3574 58.9784 51.5855 60.9612 52.9342 62.8369C52.9614 62.8758 53.0004 62.905 53.0454 62.9203C53.0903 62.9355 53.139 62.936 53.1843 62.9218C59.6099 60.9524 65.6525 57.9016 71.0524 53.9006C71.0794 53.8819 71.1019 53.8573 71.1181 53.8287C71.1344 53.8001 71.144 53.7682 71.1462 53.7354C72.6378 38.3235 68.6497 24.9347 60.5798 13.0688C60.5717 13.0492 60.5596 13.0315 60.5442 13.0169C60.5288 13.0023 60.5105 12.9911 60.4905 12.984ZM23.879 45.6164C20.3554 45.6164 17.457 42.383 17.457 38.4173C17.457 34.4471 20.3018 31.2138 23.879 31.2138C27.483 31.2138 30.3546 34.4739 30.301 38.4173C30.301 42.383 27.4562 45.6164 23.879 45.6164ZM47.6198 45.6164C44.1006 45.6164 41.1978 42.383 41.1978 38.4173C41.1978 34.4471 44.0426 31.2138 47.6198 31.2138C51.2238 31.2138 54.0998 34.4739 54.0417 38.4173C54.0417 42.383 51.2238 45.6164 47.6198 45.6164Z" fill="#FF0000"/>
</g>
<defs>
<clipPath id="clip0_34717_2781">
<rect width="71.4545" height="71.4545" fill="white" transform="translate(0 0.000976562)"/>
</clipPath>
</defs>
</svg>
