<svg width="72" height="72" viewBox="0 0 72 72" fill="none" xmlns="http://www.w3.org/2000/svg">
<path d="M70.8471 14.6985C68.361 15.8001 65.6904 16.5444 62.8829 16.8808C65.7798 15.1474 67.947 12.4193 68.9803 9.20541C66.2586 10.822 63.2799 11.96 60.1735 12.5697C58.0846 10.3394 55.3178 8.86102 52.3026 8.36426C49.2874 7.86749 46.1926 8.38009 43.4986 9.82246C40.8045 11.2648 38.6621 13.5563 37.4038 16.3411C36.1456 19.1258 35.8419 22.2481 36.54 25.2231C31.0251 24.9462 25.6301 23.5128 20.7051 21.016C15.7801 18.5191 11.4351 15.0146 7.95219 10.7298C6.76128 12.7841 6.0765 15.1659 6.0765 17.7025C6.07517 19.9861 6.63752 22.2347 7.71364 24.2488C8.78976 26.2629 10.3464 27.9802 12.2454 29.2484C10.0431 29.1783 7.88928 28.5832 5.96337 27.5127V27.6913C5.96315 30.8941 7.07101 33.9983 9.09898 36.4772C11.127 38.9562 13.9501 40.6571 17.0894 41.2915C15.0464 41.8444 12.9044 41.9258 10.8253 41.5297C11.711 44.2855 13.4363 46.6953 15.7597 48.4218C18.0831 50.1483 20.8882 51.1051 23.7823 51.1582C18.8693 55.015 12.8018 57.107 6.55584 57.0978C5.44943 57.0981 4.34396 57.0335 3.24512 56.9043C9.58515 60.9807 16.9654 63.1441 24.5028 63.1357C50.0181 63.1357 63.9666 42.003 63.9666 23.675C63.9666 23.0795 63.9517 22.4781 63.9249 21.8826C66.6381 19.9205 68.9801 17.4909 70.8411 14.7074L70.8471 14.6985Z" fill="#FF0000"/>
</svg>
